<mxfile host="app.diagrams.net" modified="2021-11-19T15:18:10.879Z" agent="5.0 (Windows NT 10.0; Win64; x64) AppleWebKit/537.36 (KHTML, like Gecko) Chrome/94.0.4606.81 Safari/537.36 OPR/80.0.4170.91" etag="LVRax6PejHXuY1eqc5T3" version="15.7.4" type="github">
  <diagram id="UENHDTjyoatSNsVy01zJ" name="Page-1">
    <mxGraphModel dx="1381" dy="795" grid="1" gridSize="10" guides="1" tooltips="1" connect="1" arrows="1" fold="1" page="1" pageScale="1" pageWidth="850" pageHeight="1100" math="0" shadow="0">
      <root>
        <mxCell id="0" />
        <mxCell id="1" parent="0" />
        <mxCell id="rMYt5tGXMao5RTA104sT-5" value="Instructions" style="swimlane;fontStyle=0;childLayout=stackLayout;horizontal=1;startSize=26;fillColor=none;horizontalStack=0;resizeParent=1;resizeParentMax=0;resizeLast=0;collapsible=1;marginBottom=0;" parent="1" vertex="1">
          <mxGeometry x="560" y="220" width="150" height="52" as="geometry" />
        </mxCell>
        <mxCell id="rMYt5tGXMao5RTA104sT-6" value="+ showInstructions(): void&#xa;" style="text;strokeColor=none;fillColor=none;align=left;verticalAlign=top;spacingLeft=4;spacingRight=4;overflow=hidden;rotatable=0;points=[[0,0.5],[1,0.5]];portConstraint=eastwest;" parent="rMYt5tGXMao5RTA104sT-5" vertex="1">
          <mxGeometry y="26" width="150" height="26" as="geometry" />
        </mxCell>
        <mxCell id="rMYt5tGXMao5RTA104sT-10" value="MainMenu" style="swimlane;fontStyle=1;align=center;verticalAlign=top;childLayout=stackLayout;horizontal=1;startSize=26;horizontalStack=0;resizeParent=1;resizeParentMax=0;resizeLast=0;collapsible=1;marginBottom=0;" parent="1" vertex="1">
          <mxGeometry x="330" y="140" width="160" height="84" as="geometry" />
        </mxCell>
        <mxCell id="rMYt5tGXMao5RTA104sT-11" value="- instructions: Instructions&#xa;" style="text;strokeColor=none;fillColor=none;align=left;verticalAlign=top;spacingLeft=4;spacingRight=4;overflow=hidden;rotatable=0;points=[[0,0.5],[1,0.5]];portConstraint=eastwest;" parent="rMYt5tGXMao5RTA104sT-10" vertex="1">
          <mxGeometry y="26" width="160" height="24" as="geometry" />
        </mxCell>
        <mxCell id="rMYt5tGXMao5RTA104sT-12" value="" style="line;strokeWidth=1;fillColor=none;align=left;verticalAlign=middle;spacingTop=-1;spacingLeft=3;spacingRight=3;rotatable=0;labelPosition=right;points=[];portConstraint=eastwest;" parent="rMYt5tGXMao5RTA104sT-10" vertex="1">
          <mxGeometry y="50" width="160" height="8" as="geometry" />
        </mxCell>
        <mxCell id="rMYt5tGXMao5RTA104sT-13" value="+ method(type): type" style="text;strokeColor=none;fillColor=none;align=left;verticalAlign=top;spacingLeft=4;spacingRight=4;overflow=hidden;rotatable=0;points=[[0,0.5],[1,0.5]];portConstraint=eastwest;" parent="rMYt5tGXMao5RTA104sT-10" vertex="1">
          <mxGeometry y="58" width="160" height="26" as="geometry" />
        </mxCell>
        <mxCell id="rMYt5tGXMao5RTA104sT-18" value="1" style="endArrow=open;html=1;endSize=12;startArrow=diamondThin;startSize=14;startFill=1;edgeStyle=orthogonalEdgeStyle;align=left;verticalAlign=bottom;rounded=0;entryX=0;entryY=0.5;entryDx=0;entryDy=0;" parent="1" target="rMYt5tGXMao5RTA104sT-5" edge="1">
          <mxGeometry x="-1" y="3" relative="1" as="geometry">
            <mxPoint x="490" y="190" as="sourcePoint" />
            <mxPoint x="560" y="190" as="targetPoint" />
          </mxGeometry>
        </mxCell>
        <mxCell id="rMYt5tGXMao5RTA104sT-19" value="Exit" style="swimlane;fontStyle=0;childLayout=stackLayout;horizontal=1;startSize=26;fillColor=none;horizontalStack=0;resizeParent=1;resizeParentMax=0;resizeLast=0;collapsible=1;marginBottom=0;" parent="1" vertex="1">
          <mxGeometry x="90" y="168" width="140" height="78" as="geometry" />
        </mxCell>
        <mxCell id="rMYt5tGXMao5RTA104sT-21" value="+ backToMenu(): void&#xa;" style="text;strokeColor=none;fillColor=none;align=left;verticalAlign=top;spacingLeft=4;spacingRight=4;overflow=hidden;rotatable=0;points=[[0,0.5],[1,0.5]];portConstraint=eastwest;fontStyle=4" parent="rMYt5tGXMao5RTA104sT-19" vertex="1">
          <mxGeometry y="26" width="140" height="26" as="geometry" />
        </mxCell>
        <mxCell id="rMYt5tGXMao5RTA104sT-22" value="+ exitGame(): void" style="text;strokeColor=none;fillColor=none;align=left;verticalAlign=top;spacingLeft=4;spacingRight=4;overflow=hidden;rotatable=0;points=[[0,0.5],[1,0.5]];portConstraint=eastwest;fontStyle=4" parent="rMYt5tGXMao5RTA104sT-19" vertex="1">
          <mxGeometry y="52" width="140" height="26" as="geometry" />
        </mxCell>
        <mxCell id="rMYt5tGXMao5RTA104sT-23" value="" style="endArrow=block;endFill=1;html=1;edgeStyle=orthogonalEdgeStyle;align=left;verticalAlign=top;rounded=0;exitX=0.025;exitY=1.115;exitDx=0;exitDy=0;exitPerimeter=0;entryX=0.993;entryY=0.846;entryDx=0;entryDy=0;entryPerimeter=0;" parent="1" source="rMYt5tGXMao5RTA104sT-11" target="rMYt5tGXMao5RTA104sT-21" edge="1">
          <mxGeometry x="-1" relative="1" as="geometry">
            <mxPoint x="210" y="300" as="sourcePoint" />
            <mxPoint x="370" y="300" as="targetPoint" />
          </mxGeometry>
        </mxCell>
        <mxCell id="rMYt5tGXMao5RTA104sT-24" value="1" style="edgeLabel;resizable=0;html=1;align=left;verticalAlign=bottom;" parent="rMYt5tGXMao5RTA104sT-23" connectable="0" vertex="1">
          <mxGeometry x="-1" relative="1" as="geometry">
            <mxPoint x="-24" y="-3" as="offset" />
          </mxGeometry>
        </mxCell>
        <mxCell id="rMYt5tGXMao5RTA104sT-25" value="includes&lt;br&gt;" style="text;html=1;strokeColor=none;fillColor=none;align=center;verticalAlign=middle;whiteSpace=wrap;rounded=0;" parent="1" vertex="1">
          <mxGeometry x="250" y="210" width="60" height="30" as="geometry" />
        </mxCell>
        <mxCell id="rMYt5tGXMao5RTA104sT-30" value="1" style="endArrow=open;html=1;endSize=12;startArrow=diamondThin;startSize=14;startFill=1;edgeStyle=orthogonalEdgeStyle;align=left;verticalAlign=bottom;rounded=0;exitX=0.503;exitY=1.102;exitDx=0;exitDy=0;exitPerimeter=0;entryX=0.5;entryY=0;entryDx=0;entryDy=0;" parent="1" source="rMYt5tGXMao5RTA104sT-13" target="iQXhH5tT1ZU-LXugOfQ7-1" edge="1">
          <mxGeometry x="-0.4593" y="1" relative="1" as="geometry">
            <mxPoint x="260" y="110" as="sourcePoint" />
            <mxPoint x="411" y="350" as="targetPoint" />
            <Array as="points">
              <mxPoint x="411" y="270" />
              <mxPoint x="411" y="270" />
              <mxPoint x="411" y="340" />
            </Array>
            <mxPoint as="offset" />
          </mxGeometry>
        </mxCell>
        <mxCell id="rMYt5tGXMao5RTA104sT-35" value="&lt;p style=&quot;margin: 0px ; margin-top: 4px ; text-align: center&quot;&gt;&lt;b&gt;Category&lt;/b&gt;&lt;/p&gt;&lt;hr size=&quot;1&quot;&gt;&lt;p style=&quot;margin: 0px ; margin-left: 4px&quot;&gt;- categoryName: String&lt;/p&gt;&lt;hr size=&quot;1&quot;&gt;&lt;p style=&quot;margin: 0px ; margin-left: 4px&quot;&gt;+ setCategoryName(): void&lt;/p&gt;&lt;p style=&quot;margin: 0px ; margin-left: 4px&quot;&gt;+ getCategoryName(): String&lt;/p&gt;" style="verticalAlign=top;align=left;overflow=fill;fontSize=12;fontFamily=Helvetica;html=1;" parent="1" vertex="1">
          <mxGeometry x="680" y="460" width="160" height="90" as="geometry" />
        </mxCell>
        <mxCell id="rMYt5tGXMao5RTA104sT-36" value="&lt;p style=&quot;margin: 0px ; margin-top: 4px ; text-align: center&quot;&gt;&lt;b&gt;Team&lt;/b&gt;&lt;/p&gt;&lt;hr size=&quot;1&quot;&gt;&lt;p style=&quot;margin: 0px ; margin-left: 4px&quot;&gt;- name: String&lt;/p&gt;&lt;hr size=&quot;1&quot;&gt;&lt;p style=&quot;margin: 0px ; margin-left: 4px&quot;&gt;+ setName(): void&lt;/p&gt;&lt;p style=&quot;margin: 0px ; margin-left: 4px&quot;&gt;+ getName(): String&lt;/p&gt;" style="verticalAlign=top;align=left;overflow=fill;fontSize=12;fontFamily=Helvetica;html=1;" parent="1" vertex="1">
          <mxGeometry x="440" y="460" width="160" height="90" as="geometry" />
        </mxCell>
        <mxCell id="rMYt5tGXMao5RTA104sT-37" value="&lt;&lt;Enumeration&gt;&gt;&#xa;Difficulty" style="swimlane;fontStyle=1;align=center;verticalAlign=top;childLayout=stackLayout;horizontal=1;startSize=40;horizontalStack=0;resizeParent=1;resizeParentMax=0;resizeLast=0;collapsible=1;marginBottom=0;" parent="1" vertex="1">
          <mxGeometry x="570" y="590" width="160" height="90" as="geometry" />
        </mxCell>
        <mxCell id="rMYt5tGXMao5RTA104sT-38" value="EASY&#xa;NORMAL&#xa;HARD" style="text;strokeColor=none;fillColor=none;align=left;verticalAlign=top;spacingLeft=4;spacingRight=4;overflow=hidden;rotatable=0;points=[[0,0.5],[1,0.5]];portConstraint=eastwest;" parent="rMYt5tGXMao5RTA104sT-37" vertex="1">
          <mxGeometry y="40" width="160" height="50" as="geometry" />
        </mxCell>
        <mxCell id="rMYt5tGXMao5RTA104sT-41" value="" style="endArrow=block;endFill=1;html=1;edgeStyle=orthogonalEdgeStyle;align=left;verticalAlign=top;rounded=0;entryX=0.456;entryY=-0.011;entryDx=0;entryDy=0;entryPerimeter=0;exitX=0.997;exitY=0.406;exitDx=0;exitDy=0;exitPerimeter=0;" parent="1" source="iQXhH5tT1ZU-LXugOfQ7-1" target="rMYt5tGXMao5RTA104sT-35" edge="1">
          <mxGeometry x="-0.7573" y="-18" relative="1" as="geometry">
            <mxPoint x="490.48" y="371.94399999999996" as="sourcePoint" />
            <mxPoint x="650" y="392.40999999999997" as="targetPoint" />
            <Array as="points">
              <mxPoint x="753" y="356" />
            </Array>
            <mxPoint as="offset" />
          </mxGeometry>
        </mxCell>
        <mxCell id="rMYt5tGXMao5RTA104sT-42" value="3" style="edgeLabel;resizable=0;html=1;align=left;verticalAlign=bottom;" parent="rMYt5tGXMao5RTA104sT-41" connectable="0" vertex="1">
          <mxGeometry x="-1" relative="1" as="geometry">
            <mxPoint x="60" y="-6" as="offset" />
          </mxGeometry>
        </mxCell>
        <mxCell id="rMYt5tGXMao5RTA104sT-43" value="" style="endArrow=block;endFill=1;html=1;edgeStyle=orthogonalEdgeStyle;align=left;verticalAlign=top;rounded=0;entryX=0.5;entryY=0;entryDx=0;entryDy=0;exitX=1;exitY=0.75;exitDx=0;exitDy=0;" parent="1" source="iQXhH5tT1ZU-LXugOfQ7-1" target="rMYt5tGXMao5RTA104sT-37" edge="1">
          <mxGeometry x="-0.75" y="-20" relative="1" as="geometry">
            <mxPoint x="490" y="375.5" as="sourcePoint" />
            <mxPoint x="650" y="580" as="targetPoint" />
            <mxPoint as="offset" />
            <Array as="points">
              <mxPoint x="490" y="370" />
              <mxPoint x="490" y="400" />
              <mxPoint x="650" y="400" />
            </Array>
          </mxGeometry>
        </mxCell>
        <mxCell id="rMYt5tGXMao5RTA104sT-44" value="1" style="edgeLabel;resizable=0;html=1;align=left;verticalAlign=bottom;" parent="rMYt5tGXMao5RTA104sT-43" connectable="0" vertex="1">
          <mxGeometry x="-1" relative="1" as="geometry">
            <mxPoint x="50" y="25" as="offset" />
          </mxGeometry>
        </mxCell>
        <mxCell id="rMYt5tGXMao5RTA104sT-45" value="" style="endArrow=block;endFill=1;html=1;edgeStyle=orthogonalEdgeStyle;align=left;verticalAlign=top;rounded=0;entryX=0.625;entryY=-0.011;entryDx=0;entryDy=0;entryPerimeter=0;exitX=0.693;exitY=0.978;exitDx=0;exitDy=0;exitPerimeter=0;" parent="1" target="rMYt5tGXMao5RTA104sT-36" edge="1">
          <mxGeometry x="-1" relative="1" as="geometry">
            <mxPoint x="440.8800000000001" y="383.82399999999996" as="sourcePoint" />
            <mxPoint x="650" y="420" as="targetPoint" />
            <Array as="points">
              <mxPoint x="441" y="420" />
              <mxPoint x="540" y="420" />
            </Array>
          </mxGeometry>
        </mxCell>
        <mxCell id="rMYt5tGXMao5RTA104sT-46" value="2" style="edgeLabel;resizable=0;html=1;align=left;verticalAlign=bottom;" parent="rMYt5tGXMao5RTA104sT-45" connectable="0" vertex="1">
          <mxGeometry x="-1" relative="1" as="geometry">
            <mxPoint x="20" y="36" as="offset" />
          </mxGeometry>
        </mxCell>
        <mxCell id="rMYt5tGXMao5RTA104sT-48" value="Game" style="swimlane;fontStyle=1;align=center;verticalAlign=top;childLayout=stackLayout;horizontal=1;startSize=26;horizontalStack=0;resizeParent=1;resizeParentMax=0;resizeLast=0;collapsible=1;marginBottom=0;" parent="1" vertex="1">
          <mxGeometry x="330" y="620" width="160" height="86" as="geometry" />
        </mxCell>
        <mxCell id="rMYt5tGXMao5RTA104sT-49" value="- buzzer: Buzzer" style="text;strokeColor=none;fillColor=none;align=left;verticalAlign=top;spacingLeft=4;spacingRight=4;overflow=hidden;rotatable=0;points=[[0,0.5],[1,0.5]];portConstraint=eastwest;" parent="rMYt5tGXMao5RTA104sT-48" vertex="1">
          <mxGeometry y="26" width="160" height="26" as="geometry" />
        </mxCell>
        <mxCell id="rMYt5tGXMao5RTA104sT-50" value="" style="line;strokeWidth=1;fillColor=none;align=left;verticalAlign=middle;spacingTop=-1;spacingLeft=3;spacingRight=3;rotatable=0;labelPosition=right;points=[];portConstraint=eastwest;" parent="rMYt5tGXMao5RTA104sT-48" vertex="1">
          <mxGeometry y="52" width="160" height="8" as="geometry" />
        </mxCell>
        <mxCell id="rMYt5tGXMao5RTA104sT-51" value="+ method(type): type" style="text;strokeColor=none;fillColor=none;align=left;verticalAlign=top;spacingLeft=4;spacingRight=4;overflow=hidden;rotatable=0;points=[[0,0.5],[1,0.5]];portConstraint=eastwest;" parent="rMYt5tGXMao5RTA104sT-48" vertex="1">
          <mxGeometry y="60" width="160" height="26" as="geometry" />
        </mxCell>
        <mxCell id="rMYt5tGXMao5RTA104sT-52" value="1" style="endArrow=open;html=1;endSize=12;startArrow=diamondThin;startSize=14;startFill=1;edgeStyle=orthogonalEdgeStyle;align=left;verticalAlign=bottom;rounded=0;entryX=0.5;entryY=0;entryDx=0;entryDy=0;" parent="1" source="iQXhH5tT1ZU-LXugOfQ7-1" target="rMYt5tGXMao5RTA104sT-48" edge="1">
          <mxGeometry x="-0.6957" y="1" relative="1" as="geometry">
            <mxPoint x="409.41" y="384" as="sourcePoint" />
            <mxPoint x="409.41" y="574" as="targetPoint" />
            <mxPoint as="offset" />
            <Array as="points">
              <mxPoint x="410" y="450" />
              <mxPoint x="410" y="450" />
            </Array>
          </mxGeometry>
        </mxCell>
        <mxCell id="rMYt5tGXMao5RTA104sT-53" value="" style="endArrow=block;endFill=1;html=1;edgeStyle=orthogonalEdgeStyle;align=left;verticalAlign=top;rounded=0;exitX=-0.019;exitY=0.862;exitDx=0;exitDy=0;exitPerimeter=0;entryX=1;entryY=0.5;entryDx=0;entryDy=0;" parent="1" source="rMYt5tGXMao5RTA104sT-49" target="rMYt5tGXMao5RTA104sT-22" edge="1">
          <mxGeometry x="-1" relative="1" as="geometry">
            <mxPoint x="280" y="620" as="sourcePoint" />
            <mxPoint x="175.0200000000001" y="643.2360000000001" as="targetPoint" />
          </mxGeometry>
        </mxCell>
        <mxCell id="rMYt5tGXMao5RTA104sT-54" value="1" style="edgeLabel;resizable=0;html=1;align=left;verticalAlign=bottom;" parent="rMYt5tGXMao5RTA104sT-53" connectable="0" vertex="1">
          <mxGeometry x="-1" relative="1" as="geometry">
            <mxPoint x="-24" y="-3" as="offset" />
          </mxGeometry>
        </mxCell>
        <mxCell id="rMYt5tGXMao5RTA104sT-55" value="Buzzer" style="swimlane;fontStyle=0;childLayout=stackLayout;horizontal=1;startSize=26;fillColor=none;horizontalStack=0;resizeParent=1;resizeParentMax=0;resizeLast=0;collapsible=1;marginBottom=0;" parent="1" vertex="1">
          <mxGeometry x="110" y="780" width="140" height="52" as="geometry" />
        </mxCell>
        <mxCell id="rMYt5tGXMao5RTA104sT-56" value="+ hitBuzz(): void" style="text;strokeColor=none;fillColor=none;align=left;verticalAlign=top;spacingLeft=4;spacingRight=4;overflow=hidden;rotatable=0;points=[[0,0.5],[1,0.5]];portConstraint=eastwest;" parent="rMYt5tGXMao5RTA104sT-55" vertex="1">
          <mxGeometry y="26" width="140" height="26" as="geometry" />
        </mxCell>
        <mxCell id="rMYt5tGXMao5RTA104sT-59" value="" style="endArrow=block;endFill=1;html=1;edgeStyle=orthogonalEdgeStyle;align=left;verticalAlign=top;rounded=0;entryX=0.5;entryY=0;entryDx=0;entryDy=0;" parent="1" source="rMYt5tGXMao5RTA104sT-51" target="rMYt5tGXMao5RTA104sT-55" edge="1">
          <mxGeometry x="-1" relative="1" as="geometry">
            <mxPoint x="339.91999999999996" y="708.4179999999999" as="sourcePoint" />
            <mxPoint x="120" y="780" as="targetPoint" />
            <Array as="points">
              <mxPoint x="340" y="750" />
              <mxPoint x="180" y="750" />
            </Array>
          </mxGeometry>
        </mxCell>
        <mxCell id="rMYt5tGXMao5RTA104sT-60" value="1" style="edgeLabel;resizable=0;html=1;align=left;verticalAlign=bottom;" parent="rMYt5tGXMao5RTA104sT-59" connectable="0" vertex="1">
          <mxGeometry x="-1" relative="1" as="geometry">
            <mxPoint x="-10" y="24" as="offset" />
          </mxGeometry>
        </mxCell>
        <mxCell id="rMYt5tGXMao5RTA104sT-65" value="&lt;p style=&quot;margin: 0px ; margin-top: 4px ; text-align: center&quot;&gt;&lt;b&gt;Score&lt;/b&gt;&lt;/p&gt;&lt;hr size=&quot;1&quot;&gt;&lt;p style=&quot;margin: 0px ; margin-left: 4px&quot;&gt;- points: int&lt;/p&gt;&lt;hr size=&quot;1&quot;&gt;&lt;p style=&quot;margin: 0px ; margin-left: 4px&quot;&gt;+ setPoints(): void&lt;/p&gt;&lt;p style=&quot;margin: 0px ; margin-left: 4px&quot;&gt;+ getPoints(): int&lt;/p&gt;" style="verticalAlign=top;align=left;overflow=fill;fontSize=12;fontFamily=Helvetica;html=1;" parent="1" vertex="1">
          <mxGeometry x="320" y="780" width="160" height="90" as="geometry" />
        </mxCell>
        <mxCell id="rMYt5tGXMao5RTA104sT-66" value="" style="endArrow=block;endFill=1;html=1;edgeStyle=orthogonalEdgeStyle;align=left;verticalAlign=top;rounded=0;exitX=0.475;exitY=1.038;exitDx=0;exitDy=0;exitPerimeter=0;" parent="1" source="rMYt5tGXMao5RTA104sT-51" edge="1">
          <mxGeometry x="-1" relative="1" as="geometry">
            <mxPoint x="380" y="740" as="sourcePoint" />
            <mxPoint x="406" y="780" as="targetPoint" />
          </mxGeometry>
        </mxCell>
        <mxCell id="rMYt5tGXMao5RTA104sT-67" value="2" style="edgeLabel;resizable=0;html=1;align=left;verticalAlign=bottom;" parent="rMYt5tGXMao5RTA104sT-66" connectable="0" vertex="1">
          <mxGeometry x="-1" relative="1" as="geometry">
            <mxPoint x="4" y="23" as="offset" />
          </mxGeometry>
        </mxCell>
        <mxCell id="rMYt5tGXMao5RTA104sT-68" value="&lt;p style=&quot;margin: 0px ; margin-top: 4px ; text-align: center&quot;&gt;&lt;b&gt;Question&lt;/b&gt;&lt;/p&gt;&lt;hr size=&quot;1&quot;&gt;&lt;p style=&quot;margin: 0px ; margin-left: 4px&quot;&gt;- question: String&lt;/p&gt;&lt;p style=&quot;margin: 0px ; margin-left: 4px&quot;&gt;- answers: String[]&lt;/p&gt;&lt;hr size=&quot;1&quot;&gt;&lt;p style=&quot;margin: 0px ; margin-left: 4px&quot;&gt;+ getters/setters&lt;/p&gt;&lt;p style=&quot;margin: 0px ; margin-left: 4px&quot;&gt;+ showQuestion(): void&lt;/p&gt;" style="verticalAlign=top;align=left;overflow=fill;fontSize=12;fontFamily=Helvetica;html=1;" parent="1" vertex="1">
          <mxGeometry x="530" y="780" width="160" height="110" as="geometry" />
        </mxCell>
        <mxCell id="rMYt5tGXMao5RTA104sT-69" value="" style="endArrow=block;endFill=1;html=1;edgeStyle=orthogonalEdgeStyle;align=left;verticalAlign=top;rounded=0;exitX=0.844;exitY=1.038;exitDx=0;exitDy=0;exitPerimeter=0;entryX=0.5;entryY=0;entryDx=0;entryDy=0;" parent="1" source="rMYt5tGXMao5RTA104sT-51" target="rMYt5tGXMao5RTA104sT-68" edge="1">
          <mxGeometry x="-0.8808" y="15" relative="1" as="geometry">
            <mxPoint x="500" y="750" as="sourcePoint" />
            <mxPoint x="660" y="750" as="targetPoint" />
            <mxPoint as="offset" />
          </mxGeometry>
        </mxCell>
        <mxCell id="rMYt5tGXMao5RTA104sT-71" value="" style="shape=cylinder3;whiteSpace=wrap;html=1;boundedLbl=1;backgroundOutline=1;size=15;lid=0;" parent="1" vertex="1">
          <mxGeometry x="760" y="880" width="60" height="80" as="geometry" />
        </mxCell>
        <mxCell id="rMYt5tGXMao5RTA104sT-73" value="links with" style="endArrow=block;endFill=1;html=1;edgeStyle=orthogonalEdgeStyle;align=left;verticalAlign=top;rounded=0;entryX=0;entryY=0;entryDx=0;entryDy=27.5;entryPerimeter=0;exitX=1.013;exitY=0.573;exitDx=0;exitDy=0;exitPerimeter=0;" parent="1" source="rMYt5tGXMao5RTA104sT-68" target="rMYt5tGXMao5RTA104sT-71" edge="1">
          <mxGeometry x="-0.1474" y="-25" relative="1" as="geometry">
            <mxPoint x="610" y="990" as="sourcePoint" />
            <mxPoint x="710" y="919.41" as="targetPoint" />
            <mxPoint as="offset" />
          </mxGeometry>
        </mxCell>
        <mxCell id="rMYt5tGXMao5RTA104sT-75" value="Question&lt;br&gt;DB" style="text;html=1;strokeColor=none;fillColor=none;align=center;verticalAlign=middle;whiteSpace=wrap;rounded=0;" parent="1" vertex="1">
          <mxGeometry x="760" y="910" width="60" height="30" as="geometry" />
        </mxCell>
        <mxCell id="QfJC7p3iIG-x-nUqPaSR-1" value="Time" style="swimlane;fontStyle=1;align=center;verticalAlign=top;childLayout=stackLayout;horizontal=1;startSize=26;horizontalStack=0;resizeParent=1;resizeParentMax=0;resizeLast=0;collapsible=1;marginBottom=0;" parent="1" vertex="1">
          <mxGeometry x="70" y="650" width="160" height="86" as="geometry" />
        </mxCell>
        <mxCell id="QfJC7p3iIG-x-nUqPaSR-2" value="- timer: Timer" style="text;strokeColor=none;fillColor=none;align=left;verticalAlign=top;spacingLeft=4;spacingRight=4;overflow=hidden;rotatable=0;points=[[0,0.5],[1,0.5]];portConstraint=eastwest;" parent="QfJC7p3iIG-x-nUqPaSR-1" vertex="1">
          <mxGeometry y="26" width="160" height="26" as="geometry" />
        </mxCell>
        <mxCell id="QfJC7p3iIG-x-nUqPaSR-3" value="" style="line;strokeWidth=1;fillColor=none;align=left;verticalAlign=middle;spacingTop=-1;spacingLeft=3;spacingRight=3;rotatable=0;labelPosition=right;points=[];portConstraint=eastwest;" parent="QfJC7p3iIG-x-nUqPaSR-1" vertex="1">
          <mxGeometry y="52" width="160" height="8" as="geometry" />
        </mxCell>
        <mxCell id="QfJC7p3iIG-x-nUqPaSR-4" value="+ showTime(): void" style="text;strokeColor=none;fillColor=none;align=left;verticalAlign=top;spacingLeft=4;spacingRight=4;overflow=hidden;rotatable=0;points=[[0,0.5],[1,0.5]];portConstraint=eastwest;" parent="QfJC7p3iIG-x-nUqPaSR-1" vertex="1">
          <mxGeometry y="60" width="160" height="26" as="geometry" />
        </mxCell>
        <mxCell id="QfJC7p3iIG-x-nUqPaSR-5" value="" style="endArrow=block;endFill=1;html=1;edgeStyle=orthogonalEdgeStyle;align=left;verticalAlign=top;rounded=0;exitX=0;exitY=0.5;exitDx=0;exitDy=0;entryX=0.994;entryY=0.618;entryDx=0;entryDy=0;entryPerimeter=0;" parent="1" source="rMYt5tGXMao5RTA104sT-51" target="QfJC7p3iIG-x-nUqPaSR-2" edge="1">
          <mxGeometry x="-1" relative="1" as="geometry">
            <mxPoint x="50" y="530" as="sourcePoint" />
            <mxPoint x="182" y="693" as="targetPoint" />
          </mxGeometry>
        </mxCell>
        <mxCell id="QfJC7p3iIG-x-nUqPaSR-6" value="1" style="edgeLabel;resizable=0;html=1;align=left;verticalAlign=bottom;" parent="QfJC7p3iIG-x-nUqPaSR-5" connectable="0" vertex="1">
          <mxGeometry x="-1" relative="1" as="geometry" />
        </mxCell>
        <mxCell id="iQXhH5tT1ZU-LXugOfQ7-1" value="&lt;p style=&quot;margin: 0px ; margin-top: 4px ; text-align: center&quot;&gt;&lt;/p&gt;&lt;div style=&quot;text-align: center ; height: 2px&quot;&gt;&lt;b&gt;GameSettings&lt;/b&gt;&lt;/div&gt;&lt;div style=&quot;text-align: center ; height: 2px&quot;&gt;&lt;b&gt;&lt;br&gt;&lt;/b&gt;&lt;/div&gt;" style="verticalAlign=top;align=left;overflow=fill;fontSize=12;fontFamily=Helvetica;html=1;" parent="1" vertex="1">
          <mxGeometry x="340" y="340" width="140" height="40" as="geometry" />
        </mxCell>
      </root>
    </mxGraphModel>
  </diagram>
</mxfile>
